<svg xmlns="http://www.w3.org/2000/svg" width="20" height="20" viewBox="0 0 20 20" fill="none">
  <path d="M9.99364 0.39378C9.77333 0.398467 9.59677 0.579717 9.59989 0.80003V18.1016L6.27645 14.9125C6.19989 14.836 6.0952 14.7938 5.98739 14.7953C5.82489 14.8 5.67958 14.9016 5.62177 15.0532C5.56395 15.2047 5.60302 15.3766 5.72333 15.4875L9.99989 19.5938L14.2765 15.4875C14.3811 15.3891 14.4249 15.2422 14.3905 15.1032C14.3561 14.9641 14.2499 14.8532 14.1124 14.8141C13.9733 14.7735 13.8249 14.811 13.7233 14.9125L10.3999 18.1016V0.80003C10.4015 0.692217 10.3593 0.58753 10.2827 0.510967C10.2061 0.434405 10.1015 0.392217 9.99364 0.39378Z" fill="black"/>
</svg>